<svg width="46" height="41" viewBox="0 0 46 41" fill="none" xmlns="http://www.w3.org/2000/svg">
  <path
    d="M13.6685 33.5482L13.5983 33.4843C13.3548 33.2341 13.2008 32.9105 13.1603 32.5637C13.1197 32.217 13.195 31.8665 13.3742 31.567L19.642 21.0636C19.801 20.7969 19.8781 20.4892 19.8636 20.179C19.8491 19.8688 19.7437 19.5697 19.5605 19.319L12.3409 9.44567C12.1332 9.16448 12.0245 8.82249 12.0316 8.47303C12.0387 8.12357 12.1612 7.78627 12.3801 7.51374C12.599 7.24121 12.9019 7.04877 13.2415 6.96641C13.5812 6.88406 13.9386 6.91642 14.258 7.05846L38.6702 17.8771C38.9595 17.9818 39.212 18.1684 39.3969 18.4143C39.5819 18.6602 39.6911 18.9546 39.7114 19.2616C39.7317 19.5686 39.6621 19.8748 39.5112 20.1429C39.3602 20.411 39.1344 20.6292 38.8614 20.7711L15.5641 33.8184C15.262 33.9865 14.9131 34.0511 14.5708 34.0023C14.2286 33.9535 13.9116 33.7941 13.6685 33.5482Z"
    fill="#590101" />
</svg>