<svg width="34" height="29" viewBox="0 0 34 29" fill="none" xmlns="http://www.w3.org/2000/svg">
<path d="M17 29C16.7807 29.0013 16.5632 28.9593 16.3602 28.8763C16.1571 28.7934 15.9724 28.6712 15.8167 28.5167L2.86668 15.55C1.24228 13.9087 0.331116 11.6926 0.331116 9.38336C0.331116 7.07408 1.24228 4.85807 2.86668 3.2167C4.50378 1.58421 6.7214 0.66748 9.03334 0.66748C11.3453 0.66748 13.5629 1.58421 15.2 3.2167L17 5.0167L18.8 3.2167C20.4371 1.58421 22.6547 0.66748 24.9667 0.66748C27.2786 0.66748 29.4962 1.58421 31.1333 3.2167C32.7577 4.85807 33.6689 7.07408 33.6689 9.38336C33.6689 11.6926 32.7577 13.9087 31.1333 15.55L18.1833 28.5167C18.0276 28.6712 17.8429 28.7934 17.6399 28.8763C17.4368 28.9593 17.2194 29.0013 17 29ZM9.03334 4.00003C8.3278 3.99683 7.62864 4.13366 6.97636 4.40259C6.32407 4.67151 5.73163 5.06719 5.23334 5.56669C4.22678 6.57856 3.66174 7.94777 3.66174 9.37503C3.66174 10.8023 4.22678 12.1715 5.23334 13.1834L17 24.9667L28.7667 13.1834C29.7732 12.1715 30.3383 10.8023 30.3383 9.37503C30.3383 7.94777 29.7732 6.57856 28.7667 5.56669C27.7395 4.59621 26.3798 4.05552 24.9667 4.05552C23.5535 4.05552 22.1939 4.59621 21.1667 5.56669L18.1833 8.56669C18.0284 8.72291 17.8441 8.8469 17.641 8.93151C17.4379 9.01613 17.22 9.05969 17 9.05969C16.78 9.05969 16.5621 9.01613 16.3591 8.93151C16.156 8.8469 15.9716 8.72291 15.8167 8.56669L12.8333 5.56669C12.3351 5.06719 11.7426 4.67151 11.0903 4.40259C10.438 4.13366 9.73888 3.99683 9.03334 4.00003Z" fill="#231F20"/>
</svg>
