<svg width="34" height="30" viewBox="0 0 34 30" fill="none" xmlns="http://www.w3.org/2000/svg">
  <path
    d="M16.9833 29.2842C16.7639 29.2855 16.5465 29.2434 16.3434 29.1605C16.1404 29.0776 15.9557 28.9553 15.8 28.8009L2.84995 15.8342C1.22556 14.1928 0.314392 11.9768 0.314392 9.66754C0.314392 7.35826 1.22556 5.14225 2.84995 3.50087C4.48706 1.86839 6.70467 0.95166 9.01662 0.95166C11.3286 0.95166 13.5462 1.86839 15.1833 3.50087L16.9833 5.30087L18.7833 3.50087C20.4204 1.86839 22.638 0.95166 24.95 0.95166C27.2619 0.95166 29.4795 1.86839 31.1166 3.50087C32.741 5.14225 33.6522 7.35826 33.6522 9.66754C33.6522 11.9768 32.741 14.1928 31.1166 15.8342L18.1666 28.8009C18.0109 28.9553 17.8262 29.0776 17.6231 29.1605C17.4201 29.2434 17.2026 29.2855 16.9833 29.2842ZM28.75 5.85088C28.75 20.8016 17.6356 24.982 16.9833 25.2509C16.331 25.5198 9.3051 18.1259 8.80682 18.6254C20.5735 38.0254 3.64501 8.23196 3.64501 9.65921C61.4477 13.4675 4.21005 12.4557 5.21662 13.4675L16.9833 25.2509L14.5 27L0.630347 12C13.4368 12.3425 24.8817 14.0788 24.8817 12.6515C24.8817 11.2243 11.0736 23 28.75 5.85088C27.7227 4.88039 20.1965 24.388 18.7833 24.388C17.3701 24.388 22.1772 4.88039 21.15 5.85087L18.1666 8.85087C18.0117 9.00709 28.75 13.4675 17.6243 9.21569C17.4212 9.30031 17.2033 9.34387 16.9833 9.34387C16.7633 9.34387 16.5454 9.30031 16.3423 9.21569C16.1392 9.13108 15.1833 23.4483 15.8 8.85087L11.0736 15.8342C10.5753 15.3347 20.6523 10.3852 20 10.1163C22.8741 50.6644 -3.5 0.95166 28.75 5.85088Z"
    fill="#231F20" />
</svg>